<?xml version="1.0" encoding="utf-8"?><svg xmlns="http://www.w3.org/2000/svg" xmlns:xlink="http://www.w3.org/1999/xlink"><symbol viewBox="0 0 40 40" id="burger" xmlns="http://www.w3.org/2000/svg"><style>path{width:100%;stroke:red}</style><path d="M8.333 11.667h23.334M8.333 20H25M8.333 28.333h10" stroke-width="2" stroke-linecap="round"/></symbol><symbol viewBox="0 0 12 8" id="checked" xmlns="http://www.w3.org/2000/svg"><path fill-rule="evenodd" clip-rule="evenodd" d="M11.025.641a.625.625 0 0 1 0 .884L5.192 7.36a.625.625 0 0 1-.884 0L.975 4.025a.625.625 0 1 1 .883-.884L4.75 6.033 10.14.64a.625.625 0 0 1 .884 0Z"/></symbol><symbol viewBox="-1 -1 11 11" id="close" xmlns="http://www.w3.org/2000/svg"><path d="m0 0 9 9M0 9l9-9"/></symbol><symbol viewBox="0 0 24 24" id="mail" xmlns="http://www.w3.org/2000/svg"><path d="M7.29 4.907a54.396 54.396 0 0 1 9.42 0l1.511.132a2.888 2.888 0 0 1 2.313 1.545.235.235 0 0 1-.091.307l-6.266 3.88a4.25 4.25 0 0 1-4.4.045L3.47 7.088a.236.236 0 0 1-.103-.293A2.889 2.889 0 0 1 5.78 5.039l1.51-.132Z"/><path d="M3.362 8.767a.248.248 0 0 0-.373.187 30.352 30.352 0 0 0 .184 7.56A2.888 2.888 0 0 0 5.78 18.96l1.51.131c3.135.273 6.287.273 9.422 0l1.51-.131a2.888 2.888 0 0 0 2.606-2.448 30.35 30.35 0 0 0 .161-7.779.247.247 0 0 0-.377-.183l-5.645 3.495a5.75 5.75 0 0 1-5.951.06l-5.653-3.34Z"/></symbol></svg>